<svg viewBox="0 0 16 16" xmlns="http://www.w3.org/2000/svg">
<path fill="#e60012" d="M0 0h16v16H0z"/>
<path fill="#fff" d="m1.27 11.04.583.786h.232v-1.174h-.239v.772l-.577-.772H1.03v1.174h.239v-.785Zm5.733-.388h-.995v.25h.375v.925h.253v-.925h.367v-.25Zm-.072 3.992h.494v-2.217H6.93v2.217Zm-2.575-3.603.583.785h.232v-1.174h-.238v.772l-.578-.772h-.237v1.174h.238v-.785Zm1.114 2.994L5 12.427h-.393L4.14 14.03l-.426-1.603H3.23l.627 2.217h.533l.414-1.46.41 1.46h.535l.63-2.217h-.482l-.428 1.608Zm-3.519-.737c-.32-.053-.527-.112-.527-.261 0-.172.23-.239.54-.239.286 0 .574.11.678.153l.157-.384a2.489 2.489 0 0 0-.858-.17c-.48 0-.988.233-.988.666 0 .351.247.53.883.64.448.076.694.119.688.311-.004.107-.086.284-.591.284-.407 0-.692-.147-.792-.207l-.21.379c.112.059.487.234.97.234.705 0 1.077-.244 1.077-.706 0-.268-.09-.548-1.028-.701m1.282-2.645H2.97v1.174h.262v-1.174Zm7.572 1.174v-1.174h-.238v.772l-.578-.772H9.75v1.174h.239v-.785l.583.785h.232Zm-2.027-.217h-.675v-.275h.624v-.213h-.624v-.254h.675v-.216h-.914v1.175h.914v-.218Zm6.252 2.768h.101v.266h.064v-.266h.1v-.063h-.265v.063Zm-.756-3.765a.627.627 0 0 0 0 1.254.627.627 0 0 0 0-1.254m0 .993a.365.365 0 1 1 0-.73.365.365 0 0 1 0 .73m1.356 2.709-.083.241-.084-.241h-.09v.33h.058v-.254l.087.25v.003h.057v-.003l.088-.25v.253h.059v-.33h-.091ZM14.353 13.3h-1.035v-.874h-.459v2.217h.459v-.884h1.035v.884h.458v-2.217h-.458v.874Zm-6.388-.403h.708v1.746h.477v-1.746h.692v-.47H7.964v.47Zm3.419-.05c.25 0 .483.134.609.344l.36-.314a1.185 1.185 0 0 0-2.166.66 1.185 1.185 0 0 0 2.167.66l-.361-.313a.711.711 0 0 1-.609.344c-.388 0-.703-.31-.703-.69s.315-.691.703-.691m.9-2.196h-.486v1.174h.485c.333 0 .604-.263.604-.587s-.271-.587-.604-.587m.012.928h-.256v-.68h.256a.341.341 0 0 1 0 .68M4.104 1.11h-1.73a2.03 2.03 0 0 0-2.03 2.03v3.855a2.03 2.03 0 0 0 2.03 2.03h1.73a.058.058 0 0 0 .058-.059V1.167a.058.058 0 0 0-.058-.057Zm-.58 7.276h-1.15c-.372 0-.721-.144-.984-.407a1.38 1.38 0 0 1-.408-.984V3.14c0-.372.145-.721.408-.984.263-.262.612-.407.984-.407h1.15v6.64ZM2.32 2.74a.744.744 0 1 1 0 1.488.744.744 0 0 1 0-1.488Zm3.91-1.63H5.005a.051.051 0 0 0-.051.052v7.805c0 .032.025.059.057.059H6.23a2.03 2.03 0 0 0 2.03-2.03V3.14a2.03 2.03 0 0 0-2.03-2.03Zm.29 5.153a.8.8 0 1 1 0-1.6.8.8 0 0 1 0 1.6Zm3.073 2.762V7.664c.14-.115.672-.573 1.234-1.056.506-.435 1.01-.871 1.526-1.294.388-.32 1.125-.905 1.149-1.48.028-.675-.452-1.112-1.167-1.112-.426 0-.926.236-1.23.494s-.691.59-.691.59L9.293 2.592c.951-1.066 1.974-1.607 3.04-1.607 2.272-.056 3.984 2.476 2.256 4.46a16.978 16.978 0 0 1-2.07 1.914h2.966v1.666H9.59Z"/>
</svg>
