<svg xmlns="http://www.w3.org/2000/svg" viewBox="0 0 16 16">
<path fill="#cc0010" d="M5.63 7.3H8v2.53H5.63Zm-4.5-2.76h2.91v7.02h-2.9Z"/>
<path fill="#818990" d="M4.45 3.88H2.63c-1.18 0-2.14.96-2.14 2.14v4.06c0 1.19.96 2.14 2.14 2.14h1.82c.04 0 .07-.02.07-.06V3.94a.06.06 0 0 0-.07-.06zm-.6 7.67H2.62a1.46 1.46 0 0 1-1.04-.43 1.45 1.45 0 0 1-.43-1.04V6.02a1.46 1.46 0 0 1 .43-1.04 1.46 1.46 0 0 1 1.04-.43h1.21v7zM2.56 5.6a.78.78 0 1 1 0 1.57.78.78 0 0 1 0-1.57zm3.95-1.72h-1.3a.05.05 0 0 0-.05.05v8.23c0 .04.03.06.06.06h1.29c1.18 0 2.14-.95 2.14-2.14V6.02c0-1.18-.96-2.14-2.14-2.14zm.3 5.43a.84.84 0 1 1 0-1.68.84.84 0 0 1 0 1.68zm2.46 2.91V10.8l1.3-1.11L12.2 8.3c.41-.34 1.2-.95 1.21-1.56.03-.71-.47-1.17-1.22-1.17-.45 0-.98.25-1.3.52l-.73.62-1.18-1.28c1-1.12 2.08-1.7 3.2-1.7 2.4-.05 4.2 2.62 2.38 4.71a17.9 17.9 0 0 1-2.18 2.02h3.13v1.75H9.28z"/>
</svg>
