<?xml version="1.0" encoding="UTF-8" ?>
<!DOCTYPE svg PUBLIC "-//W3C//DTD SVG 1.1//EN" "http://www.w3.org/Graphics/SVG/1.1/DTD/svg11.dtd">
<svg version="1.1" xmlns="http://www.w3.org/2000/svg" x="0px" y="0px" viewBox="0 0 451.731 451.731">
<path fill="#914040" opacity="1.00" d="M144.814,228.249l-40.308,20.638c-8.908,4.561-19.414,3.968-27.713-1.317l-0.228,12.415 c-0.229,12.46,9.687,22.747,22.147,22.975c15.164,0.279,27.552,0.506,42.785,0.785c-1.177-12.487-0.984-25.444,0.624-38.807 C142.783,239.442,143.682,233.875,144.814,228.249z"/>
<path fill="#914040" opacity="1.00" d="M122.2,173.67l11.286-28.925l-5.112,44.924L85.44,211.653c-6.854,3.51-9.565,11.912-6.056,18.767 c3.511,6.858,11.915,9.565,18.767,6.057l49.588-25.39c4.156-2.128,6.971-6.195,7.499-10.835l5.957-52.351l3.127,21.351 c9.827-21.642,20.615-39.138,27.844-49.885l-18.391-13.678c-10-7.438-24.135-5.36-31.573,4.639l-24.015,32.288 C110.914,152.395,112.762,166.114,122.2,173.67z"/>
<circle fill="#914040" opacity="1.00" cx="95.472" cy="100.425" r="33.403"/>
<path fill="#914040" opacity="1.00" d="M433.672,344.782H177.559c-5.692,0-19.696-2.01-26.782-20.634c-3.322-8.731-5.811-17.802-7.487-27.169 H12.5c-6.903,0-12.5,5.597-12.5,12.5v47.303c0,6.903,5.597,12.5,12.5,12.5h21.786v7.325c0,4.476,3.628,8.104,8.104,8.104h40.652 c4.476,0,8.104-3.628,8.104-8.104v-7.325h272.08v7.325c0,4.476,3.628,8.104,8.104,8.104h40.652c4.476,0,8.104-3.628,8.104-8.104 v-7.325h19.146c6.903,0,12.5-5.597,12.5-12.5v-18.531C446.829,342.355,440.519,344.782,433.672,344.782z"/>
<path fill="#914040" opacity="1.00" d="M169.469,317.035c1.542,4.051,3.756,7.747,8.09,7.747h256.113c3.974,0,7.361-2.881,7.999-6.803 l5.171-31.802c5.05-31.058-16.426-57.291-46.657-66.021c-61.268-17.692-68.334-86.872-183.894-100.206 C216.291,119.951,134.372,224.8,169.469,317.035z"/>
<path fill="#914040" opacity="1.00" d="M32.927,272.295c19.491,0.358,35.31-16.033,33.926-35.771c-1.209-17.255-15.427-30.708-32.7-31.025 c-18.445-0.339-33.672,14.34-34.011,32.785C-0.196,256.729,14.482,271.956,32.927,272.295z"/>
</svg>
