<?xml version="1.0" encoding="UTF-8"?>
<svg version="1.1" viewBox="0 0 512.43 512.43" xmlns="http://www.w3.org/2000/svg">
<circle cx="256" cy="289.39" r="42.667"/>
<path d="m512.43 199.15-171.09-34.773-85.334-152.32-85.333 152.32-170.67 34.56 118.19 128-20.48 173.44 158.29-66.773 158.51 66.773-20.267-173.23 118.19-128zm-242.13 201.6-14.293-6.614-14.08 5.973-101.12 42.667 13.013-110.72 1.92-16.427-11.307-12.16-74.453-81.706 107.73-21.333 16.427-3.627 8.107-14.08 53.76-96.213 53.973 96.213 8.107 14.507 16.213 3.2 107.73 21.333-74.453 80.853-11.307 12.16 2.133 17.28 13.013 111.36-101.12-42.666z"/>
</svg>
