<?xml version="1.0" encoding="UTF-8"?>
<svg version="1.1" viewBox="0 0 505.81 505.81" xmlns="http://www.w3.org/2000/svg">
<path d="m390.17 60.981c-40.151 0.287-77.221 21.574-97.707 56.107-20.486-34.532-57.556-55.819-97.707-56.107-14.644 0.017-29.142 2.916-42.667 8.533l28.8 29.227c4.566-0.927 9.208-1.427 13.867-1.493 27.505 0.211 52.871 14.879 66.773 38.613l30.933 50.987 30.933-50.987c13.903-23.734 39.268-38.402 66.773-38.613 44.929 1.164 80.434 38.482 79.36 83.413 0 34.987-29.867 85.333-69.333 137.39l25.813 25.813c42.667-55.04 79.787-115.84 79.787-163.2 1.071-64.959-50.669-118.51-115.62-119.68z"/>
<path d="m366.27 359.65c-24.533 28.373-50.133 55.467-73.813 78.293-76.8-74.453-177.07-193.07-177.07-257.28 7e-3 -20.439 7.35-40.197 20.693-55.68-7.602-9.841-17.906-17.254-29.653-21.333-17.729 21.744-27.378 48.958-27.307 77.013 0 114.99 213.33 306.99 213.33 306.99s39.893-36.053 85.333-86.4c7.041-7.68-9.172-44.373-11.519-41.6z"/>
<rect transform="matrix(.7071 -.7071 .7071 .7071 -105.69 250.66)" x="228.4" y="-78.936" width="42.667" height="663.68"/>
</svg>
