<svg xmlns="http://www.w3.org/2000/svg" viewBox="0 0 16 16">
<circle cx="8" cy="8" r="7.41" fill="none" stroke="#e44" stroke-width="1.17"/>
<circle cx="9.54" cy="6.39" r=".49" fill="#e44"/>
<path fill="#e44" d="M11.82 5.03a2.66 2.66 0 0 0-4.38-.12A2.3 2.3 0 0 0 7 6.88L3.79 10.1v2.1h3.15v-1.05H8V10.1h1.05V9c2.48.55 3.9-1.86 2.78-3.96zM8.86 8.12l-.62.62v.43l-.12.12h-.93v.93l-.12.12h-.93v.93l-.12.12H4.78l-.12-.12v-.87l3.27-3.27A1.8 1.8 0 0 1 9.6 4.6c.99 0 1.85.8 1.85 1.85-.12 1.67-1.3 2.22-2.6 1.67z"/>
</svg>
