<svg xmlns="http://www.w3.org/2000/svg" viewBox="0 0 16 16">
<circle cx="8" cy="8" r="7.41" fill="none" stroke="#e44" stroke-width="1.17"/>
<path fill="#e44" d="m6.64 7.4.75-.77 2.05 2-.8.76-2-1.99zm1.97 3.3-3.28 1.1-1.12-1.06 1.12-3.3L8.6 10.7zM7.45 5.34l3.22-1.09 1.07 1.08-1.08 3.23c-.03 0-3.23-3.2-3.21-3.22zm-3.84 8.11.97-.93.55.44 4.26-1.43.43.37.73-.72-.84-.86.62-.63.85.85.72-.74-.38-.43 1.41-4.29-.45-.48.96-.99-1.07-1.06-.98.98-.5-.47-4.27 1.42-.43-.38-.72.72.87.88-.62.63-.87-.87-.74.75.36.4-1.42 4.37.45.47-.93.96 1.04 1.04z"/>
</svg>
